<svg width="124" height="72" viewBox="0 0 124 72" fill="none" xmlns="http://www.w3.org/2000/svg">
<path d="M9.87394 45.8434H6.30859V29.4131H0V26.4405H16.1621V29.4131H9.87394V45.8434Z" fill="#010202"/>
<path d="M19.6808 45.8434V26.4405H23.2462V45.8434H19.6808Z" fill="#010202"/>
<path d="M38.1489 29.0683C37.1752 29.0683 36.2773 29.2277 35.4552 29.5464C34.6331 29.8651 33.9276 30.3315 33.3387 30.9399C32.7499 31.5513 32.2893 32.3046 31.9598 33.1998C31.6275 34.0951 31.4642 35.1207 31.4642 36.2709C31.4642 37.4124 31.6158 38.4178 31.9161 39.284C32.2164 40.1503 32.6507 40.8746 33.2163 41.457C33.7819 42.0393 34.4699 42.4768 35.2803 42.7723C36.0937 43.0679 37.0149 43.2156 38.0469 43.2156C38.7873 43.2156 39.5395 43.1577 40.3091 43.0447C41.0787 42.9317 41.7988 42.7636 42.4693 42.5463V45.5914C41.7871 45.7855 41.0525 45.9361 40.2654 46.0462C39.4783 46.1563 38.6591 46.2114 37.8137 46.2114C36.1607 46.2114 34.7031 45.9767 33.4495 45.5073C32.196 45.038 31.1465 44.3745 30.304 43.5198C29.4615 42.6622 28.8318 41.6366 28.4062 40.4429C27.9834 39.2493 27.7706 37.931 27.7706 36.4882C27.7706 35.0077 27.998 33.6344 28.4499 32.3654C28.9017 31.0964 29.5548 29.9983 30.4031 29.0712C31.2543 28.1412 32.3184 27.4111 33.5982 26.878C34.878 26.3449 36.324 26.0754 37.9419 26.0639C38.7699 26.0639 39.5511 26.1189 40.2916 26.229C41.0321 26.3391 41.6968 26.4956 42.2915 26.6984V29.7057C41.5131 29.4681 40.7872 29.3001 40.1167 29.2045C39.4462 29.1147 38.7903 29.0683 38.1489 29.0683Z" fill="#010202"/>
<path d="M46.8218 45.8434V26.4405H50.3988V35.2713H50.4571L57.8298 26.4405H62.2668L54.1216 36.0536L62.9373 45.8405H58.3545L50.4571 37.0821H50.3988V45.8405H46.8218V45.8434Z" fill="#010202"/>
<path d="M66.4326 45.8434V26.4405H71.6014C72.0591 26.4405 72.5226 26.455 72.9949 26.484C73.4671 26.5129 73.9277 26.5564 74.3738 26.6143C74.8198 26.6723 75.2542 26.7418 75.674 26.8258C76.0938 26.9099 76.4786 27.0084 76.8284 27.1214C77.8691 27.4516 78.7904 27.8949 79.5891 28.457C80.3879 29.0191 81.0555 29.6796 81.5978 30.4445C82.1371 31.2094 82.5481 32.0612 82.8251 33.0028C83.102 33.9444 83.2419 34.9671 83.2419 36.071C83.2419 37.114 83.1253 38.0933 82.8921 39.0088C82.6589 39.9214 82.3032 40.7558 81.8251 41.5091C81.347 42.2624 80.7465 42.9288 80.0235 43.5024C79.2976 44.079 78.4405 44.5484 77.4464 44.9163C76.6185 45.2263 75.6798 45.4581 74.6274 45.6117C73.575 45.7652 72.3943 45.8434 71.0796 45.8434H66.4326ZM71.4731 42.8708C73.5662 42.8708 75.2017 42.5869 76.3795 42.0162C77.4202 41.5033 78.2102 40.7587 78.7437 39.7824C79.2772 38.806 79.5483 37.5602 79.5483 36.042C79.5483 35.2482 79.4609 34.5354 79.286 33.8951C79.1111 33.2549 78.8574 32.6899 78.528 32.1916C78.1957 31.6932 77.7963 31.2673 77.324 30.9081C76.8517 30.5517 76.3182 30.2562 75.7264 30.0244C75.1725 29.8129 74.5545 29.6565 73.8724 29.5608C73.1902 29.4652 72.4264 29.416 71.581 29.416H70.0038V42.8708H71.4731Z" fill="#010202"/>
<path d="M117.709 45.8434H114.144V29.4131H107.838V26.4405H124V29.4131H117.709V45.8434Z" fill="#010202"/>
<path d="M96.5704 25.8784C99.5178 25.8784 102.048 26.8693 104.17 28.8481C106.29 30.8269 107.351 33.2404 107.351 36.0855C107.351 38.9045 106.304 41.2918 104.214 43.2446C102.124 45.1973 99.5848 46.1737 96.6025 46.1737C93.4774 46.1737 90.8799 45.1713 88.813 43.1664C86.7461 41.1615 85.7112 38.7799 85.7112 36.0217C85.7112 34.1733 86.1922 32.4755 87.1571 30.9255C88.1192 29.3754 89.4456 28.147 91.1306 27.2401C92.8098 26.3333 94.626 25.8784 96.5704 25.8784ZM96.5151 29.471C94.591 29.471 92.973 30.0939 91.6641 31.3369C90.3551 32.5798 89.6992 34.1617 89.6992 36.0768C89.6992 38.2121 90.5242 39.9041 92.1743 41.147C93.457 42.1176 94.9263 42.6043 96.5879 42.6043C98.4654 42.6043 100.063 41.9727 101.384 40.7124C102.704 39.4521 103.363 37.8963 103.363 36.0507C103.363 34.2109 102.698 32.6551 101.369 31.3832C100.037 30.1084 98.4187 29.471 96.5151 29.471Z" fill="#010202"/>
<path d="M36.7758 23.6128C41.0321 14.8544 49.7778 8.57601 59.952 7.81403C60.6546 7.76188 61.3572 7.73581 62.0597 7.73581C69.479 7.73581 76.6214 10.6591 81.9242 15.9293C84.201 18.192 86.0435 20.7937 87.4049 23.6099H95.8445C95.7658 23.3955 95.6871 23.1811 95.6055 22.9667C94.7047 20.6257 93.5444 18.3658 92.1597 16.2566C90.7924 14.1735 89.2007 12.2237 87.4282 10.4592C85.6557 8.6977 83.6938 7.1158 81.5948 5.75698C79.4725 4.38079 77.2015 3.23057 74.8431 2.33532C72.4322 1.41689 69.9163 0.762111 67.3655 0.385468C64.7388 -0.00276449 62.0481 -0.0983727 59.3719 0.101538C55.0486 0.426031 50.8681 1.5096 46.9529 3.32329C43.1515 5.08482 39.7144 7.47795 36.7379 10.4389C33.7614 13.397 31.3534 16.8129 29.5781 20.5909C29.1145 21.5818 28.6977 22.5871 28.3274 23.6099H36.7758V23.6128Z" fill="#E30613"/>
<path d="M36.7758 48.3872C41.0321 57.1456 49.7778 63.424 59.952 64.186C60.6546 64.2381 61.3572 64.2642 62.0597 64.2642C69.479 64.2642 76.6214 61.3409 81.9242 56.0708C84.201 53.808 86.0435 51.2063 87.4049 48.3901H95.8445C95.7658 48.6045 95.6871 48.8189 95.6055 49.0333C94.7047 51.3743 93.5444 53.6342 92.1597 55.7434C90.7924 57.8265 89.2007 59.7763 87.4282 61.5408C85.6557 63.3023 83.6938 64.8842 81.5948 66.243C79.4725 67.6192 77.2015 68.7694 74.8431 69.6647C72.4322 70.5831 69.9163 71.2379 67.3655 71.6145C64.7388 72.0028 62.0481 72.0984 59.3719 71.8985C55.0486 71.574 50.8681 70.4904 46.9529 68.6767C43.1515 66.9152 39.7144 64.522 36.7379 61.561C33.7614 58.6029 31.3534 55.1871 29.5781 51.4091C29.1145 50.4182 28.6977 49.4129 28.3274 48.3901H36.7758V48.3872Z" fill="#E30613"/>
</svg>
